<svg width="1256" height="715" viewBox="0 0 1256 715" fill="none" xmlns="http://www.w3.org/2000/svg">
<path d="M659.275 353.843L1230.22 781.908H88.326L659.275 353.843Z" fill="#C9C9CA"/>
<path d="M1204.08 99.3668L1707.17 787.361H700.987L1204.08 99.3668Z" fill="#C9C9CA"/>
<path d="M848.426 239.934L1208.91 792.511H487.938L848.426 239.934Z" fill="#C9C9CA"/>
<path d="M1039.41 0L1390.36 856.13H688.468L1039.41 0Z" fill="#C9C9CA"/>
<path d="M659.275 453.21L1230.22 881.275H88.326L659.275 453.21Z" fill="#BEBEBF"/>
<path d="M1204.08 198.734L1707.17 886.728H700.987L1204.08 198.734Z" fill="#BEBEBF"/>
<path d="M848.426 339.301L1208.91 891.878H487.938L848.426 339.301Z" fill="#BEBEBF"/>
<path d="M1039.41 99.3668L1390.36 955.497H688.468L1039.41 99.3668Z" fill="#BEBEBF"/>
<path d="M659.275 564.694L1230.22 992.759H88.326L659.275 564.694Z" fill="#B1B1B2"/>
<path d="M1204.08 310.218L1707.17 998.212H700.987L1204.08 310.218Z" fill="#B1B1B2"/>
<path d="M848.426 450.786L1208.91 1003.36H487.938L848.426 450.786Z" fill="#B1B1B2"/>
<path d="M1039.41 210.852L1390.36 1066.98H688.468L1039.41 210.852Z" fill="#B1B1B2"/>
<path d="M659.275 678.603L1230.22 1106.67H88.326L659.275 678.603Z" fill="#979699"/>
<path d="M1204.08 424.127L1707.17 1112.12H700.987L1204.08 424.127Z" fill="#979699"/>
<path d="M848.426 564.694L1208.91 1117.27H487.938L848.426 564.694Z" fill="#979699"/>
<path d="M1039.41 324.76L1390.36 1180.89H688.468L1039.41 324.76Z" fill="#979699"/>
<path d="M1204.08 523.493L1707.17 1211.49H700.987L1204.08 523.493Z" fill="#828184"/>
<path d="M848.426 664.061L1208.91 1216.64H487.938L848.426 664.061Z" fill="#828184"/>
<path d="M1039.41 424.127L1390.36 1280.26H688.468L1039.41 424.127Z" fill="#828184"/>
<path d="M1204.08 622.86L1707.17 1310.85H700.987L1204.08 622.86Z" fill="#67666B"/>
<path d="M1039.41 523.493L1390.36 1379.62H688.468L1039.41 523.493Z" fill="#67666B"/>
</svg>
