<svg xmlns:mydata="http://www.w3.org/2000/svg" xmlns="http://www.w3.org/2000/svg" xmlns:xlink="http://www.w3.org/1999/xlink" viewBox="60 175 450 120">
  <defs>
    <linearGradient x1="32" y1="235" x2="485" y2="235" gradientUnits="userSpaceOnUse" id="color-135993">
      <stop offset="0" stop-color="#5b21b6"></stop>
      <stop offset="1" stop-color="#6d28d9"></stop>
    </linearGradient>
  </defs>

  <g fill="url(#color-135993)" fill-rule="nonzero" stroke="none" stroke-width="1" stroke-linecap="butt" stroke-linejoin="miter" stroke-miterlimit="10" stroke-dasharray="" stroke-dashoffset="0" font-family="none" font-weight="none" font-size="none" text-anchor="none" style="mix-blend-mode: normal">
    <g>
      <path d="M238.92995,229.93813c-3.0793,5.27278 -4.61895,10.98847 -4.61895,17.14708c0,6.24297 1.56074,11.93757 4.68223,17.0838c3.03712,5.31496 7.19207,9.51209 12.46485,12.5914c5.27278,3.0793 10.98847,4.61895 17.14708,4.61895c5.48369,0 10.54556,-1.1811 15.1856,-3.54331c4.72441,-2.3622 8.68954,-5.61024 11.89539,-9.7441c3.20585,-4.13386 5.35714,-8.7739 6.45388,-13.92014h-14.80596c-1.4342,3.7964 -3.85967,6.8968 -7.27644,9.30118c-3.41676,2.40439 -7.23425,3.60658 -11.45248,3.60658c-3.71204,0 -7.04443,-0.92801 -9.99719,-2.78403c-3.03712,-1.77165 -5.4626,-4.19713 -7.27644,-7.27644c-1.81384,-3.0793 -2.72075,-6.39061 -2.72075,-9.93392c0,-3.71204 0.92801,-7.04443 2.78403,-9.99719c1.77165,-3.03712 4.19713,-5.4626 7.27644,-7.27644c3.0793,-1.81384 6.39061,-2.72075 9.93392,-2.72075c4.21822,0 8.01463,1.1811 11.3892,3.54331c3.37458,2.3622 5.77896,5.44151 7.21316,9.23791l14.93251,0.12655c-1.09674,-5.06187 -3.24803,-9.70191 -6.45388,-13.92014c-3.29021,-4.1338 -7.29752,-7.38183 -12.02194,-9.7441c-4.72441,-2.36221 -9.7441,-3.54331 -15.05906,-3.54331c-6.15861,0 -11.85321,1.51856 -17.0838,4.55568c-5.31496,3.12148 -9.51209,7.31862 -12.5914,12.5914z">
      </path>
      <path d="M374.52473,248.09758l-0.12655,-59.47695l-14.17323,7.5928v23.0315c-6.07424,-4.30259 -12.73903,-6.45388 -19.99438,-6.45388c-6.15861,0 -11.85321,1.51856 -17.0838,4.55568c-5.31496,3.12148 -9.51209,7.31862 -12.5914,12.5914c-3.0793,5.27278 -4.61895,10.98847 -4.61895,17.14708c0,6.24297 1.56074,11.93757 4.68223,17.0838c3.03712,5.31496 7.19207,9.51209 12.46485,12.5914c5.27278,3.0793 10.98847,4.61895 17.14708,4.61895c6.07424,0 11.76884,-1.51856 17.0838,-4.55568c5.31496,-3.03712 9.51209,-7.08662 12.5914,-12.14848c3.0793,-5.06187 4.61895,-10.58774 4.61895,-16.57762zM357.5042,237.15129c1.81384,3.0793 2.72075,6.39061 2.72075,9.93392c0,3.62767 -0.88583,6.96007 -2.65748,9.99719c-1.85602,3.03712 -4.32368,5.4626 -7.40298,7.27644c-3.0793,1.81384 -6.39061,2.72075 -9.93392,2.72075c-3.71204,0 -7.04443,-0.92801 -9.99719,-2.78403c-3.03712,-1.77165 -5.4626,-4.19713 -7.27644,-7.27644c-1.81384,-3.0793 -2.72075,-6.39061 -2.72075,-9.93392c0,-3.71204 0.92801,-7.04443 2.78403,-9.99719c1.77165,-3.03712 4.19713,-5.4626 7.27644,-7.27644c3.0793,-1.81384 6.39061,-2.72075 9.93392,-2.72075c3.62767,0 6.96007,0.88583 9.99719,2.65748c3.03712,1.85602 5.4626,4.32368 7.27644,7.40298z">
      </path>
      <path d="M446.90944,248.09758l-0.12655,-59.47695l-14.17323,7.5928v23.0315c-6.07424,-4.30259 -12.73903,-6.45388 -19.99438,-6.45388c-6.15861,0 -11.85321,1.51856 -17.0838,4.55568c-5.31496,3.12148 -9.51209,7.31862 -12.5914,12.5914c-3.0793,5.27278 -4.61895,10.98847 -4.61895,17.14708c0,6.24297 1.56074,11.93757 4.68223,17.0838c3.03712,5.31496 7.19207,9.51209 12.46485,12.5914c5.27278,3.0793 10.98847,4.61895 17.14708,4.61895c6.07424,0 11.76884,-1.51856 17.0838,-4.55568c5.31496,-3.03712 9.51209,-7.08662 12.5914,-12.14848c3.0793,-5.06187 4.61895,-10.58774 4.61895,-16.57762zM429.88891,237.15129c1.81384,3.0793 2.72075,6.39061 2.72075,9.93392c0,3.62767 -0.88583,6.96007 -2.65748,9.99719c-1.85602,3.03712 -4.32368,5.4626 -7.40298,7.27644c-3.0793,1.81384 -6.39061,2.72075 -9.93392,2.72075c-3.71204,0 -7.04443,-0.92801 -9.99719,-2.78403c-3.03712,-1.77165 -5.4626,-4.19713 -7.27644,-7.27644c-1.81384,-3.0793 -2.72075,-6.39061 -2.72075,-9.93392c0,-3.71204 0.92801,-7.04443 2.78403,-9.99719c1.77165,-3.03712 4.19713,-5.4626 7.27644,-7.27644c3.0793,-1.81384 6.39061,-2.72075 9.93392,-2.72075c3.62767,0 6.96007,0.88583 9.99719,2.65748c3.03712,1.85602 5.4626,4.32368 7.27644,7.40298z">
      </path>
      <path d="M453.23678,188.74718v92.37909h16.57762v-57.07256h11.26266l3.92295,-14.67942h-15.1856v-20.62711z">
      </path>
    </g>  

    <g>
      <path d="M111.37936,281.37936c-0.79281,0 -1.18921,-0.3964 -1.18921,-1.18921v-13.08136c0,-0.79281 0.3964,-1.18921 1.18921,-1.18921c0.79281,0 1.18921,0.3964 1.18921,1.18921v13.08136c0,0.79281 -0.3964,1.18921 -1.18921,1.18921zM111.37936,204.08042c-0.79281,0 -1.18921,-0.3964 -1.18921,-1.18921v-13.08136c0,-0.79281 0.3964,-1.18921 1.18921,-1.18921c0.79281,0 1.18921,0.3964 1.18921,1.18921v13.08136c0,0.79281 -0.3964,1.18921 -1.18921,1.18921zM115.77946,266.75203c-0.15856,-0.71353 0.15856,-1.14957 0.95137,-1.30813c0.79281,-0.15856 1.26849,0.15856 1.42706,0.95137l2.25951,12.7246c0.15856,0.79281 -0.15856,1.26849 -0.95137,1.42706h-0.23784c-0.63425,0 -1.03065,-0.31712 -1.18921,-0.95137zM102.34133,190.6423c-0.15856,-0.71353 0.15856,-1.14957 0.95137,-1.30813c0.79281,-0.15856 1.26849,0.15856 1.42706,0.95137l2.25951,12.84352c0.15856,0.79281 -0.15856,1.26849 -0.95137,1.42706h-0.23784c-0.63425,0 -1.03065,-0.31712 -1.18921,-0.95137zM121.24984,265.56281c-0.31712,-0.71353 -0.07928,-1.22885 0.71353,-1.54598c0.71353,-0.31712 1.22885,-0.07928 1.54598,0.71353l4.40009,12.24891c0.23784,0.79281 0,1.30813 -0.71353,1.54598c-0.07928,0.07928 -0.1982,0.11892 -0.35676,0.11892c-0.55497,0 -0.91173,-0.27748 -1.07029,-0.83245zM94.84928,192.90181c-0.31712,-0.79281 -0.07928,-1.30813 0.71353,-1.54598c0.63425,-0.23784 1.10993,0 1.42706,0.71353l4.51902,12.24891c0.23784,0.71353 0,1.22885 -0.71353,1.54598c-0.07928,0.07928 -0.1982,0.11892 -0.35676,0.11892c-0.55497,0 -0.95137,-0.27748 -1.18921,-0.83245zM126.83915,261.75733c0.63425,-0.3964 1.18921,-0.27748 1.6649,0.35676l6.42176,11.29754c0.3964,0.71353 0.27748,1.26849 -0.35676,1.6649c-0.15856,0.07928 -0.35676,0.11892 -0.59461,0.11892c-0.55497,0 -0.91173,-0.1982 -1.07029,-0.59461l-6.54068,-11.29754c-0.15856,-0.23784 -0.1982,-0.51533 -0.11892,-0.83245c0.07928,-0.31712 0.27748,-0.55497 0.59461,-0.71353zM87.714,196.46945c-0.31712,-0.71353 -0.15856,-1.26849 0.47569,-1.6649c0.71353,-0.3964 1.26849,-0.23784 1.6649,0.47569l6.54068,11.29754c0.31712,0.79281 0.15856,1.30813 -0.47569,1.54598c-0.31712,0.15856 -0.51533,0.23784 -0.59461,0.23784c-0.47569,0 -0.83245,-0.1982 -1.07029,-0.59461zM141.22865,268.77369c0.47569,0.55497 0.43604,1.10993 -0.11892,1.6649c-0.31712,0.15856 -0.55497,0.23784 -0.71353,0.23784c-0.3964,0 -0.71353,-0.11892 -0.95137,-0.35676l-8.3245,-9.9894c-0.23784,-0.23784 -0.33695,-0.53515 -0.29731,-0.89191c0.03964,-0.35676 0.17838,-0.61443 0.41623,-0.77299c0.23784,-0.23784 0.53515,-0.33695 0.89191,-0.29731c0.35676,0.03964 0.61443,0.17838 0.77299,0.41623zM81.41116,201.10739c-0.47569,-0.63425 -0.43604,-1.18921 0.11892,-1.6649c0.63425,-0.55497 1.18921,-0.51533 1.6649,0.11892l8.44342,9.9894c0.55497,0.63425 0.51533,1.18921 -0.11892,1.6649c-0.23784,0.23784 -0.51533,0.35676 -0.83245,0.35676c-0.31712,0 -0.59461,-0.15856 -0.83245,-0.47569zM146.81795,263.06546c0.55497,0.55497 0.59461,1.10993 0.11892,1.6649c-0.23784,0.31712 -0.55497,0.47569 -0.95137,0.47569c-0.15856,0 -0.3964,-0.07928 -0.71353,-0.23784l-10.10832,-8.44342c-0.63425,-0.55497 -0.67389,-1.10993 -0.11892,-1.6649c0.47569,-0.63425 1.03065,-0.71353 1.6649,-0.23784zM76.05969,206.81562c-0.31712,-0.15856 -0.47569,-0.41623 -0.47569,-0.77299c0,-0.35676 0.07928,-0.65407 0.23784,-0.89191c0.55497,-0.55497 1.14957,-0.59461 1.78382,-0.11892l9.9894,8.44342c0.63425,0.47569 0.67389,1.03065 0.11892,1.6649c-0.23784,0.23784 -0.55497,0.35676 -0.95137,0.35676c-0.15856,0 -0.3964,-0.07928 -0.71353,-0.23784zM71.6596,213.47522c-0.63425,-0.47569 -0.75317,-1.03065 -0.35676,-1.6649c0.15856,-0.31712 0.3964,-0.51533 0.71353,-0.59461c0.31712,-0.07928 0.59461,-0.03964 0.83245,0.11892l11.29754,6.54068c0.71353,0.3964 0.87209,0.95137 0.47569,1.6649c-0.23784,0.3964 -0.59461,0.59461 -1.07029,0.59461c-0.07928,0 -0.27748,-0.07928 -0.59461,-0.23784zM68.56764,220.61051c-0.79281,-0.23784 -1.03065,-0.75317 -0.71353,-1.54598c0.15856,-0.79281 0.63425,-1.03065 1.42706,-0.71353l12.36783,4.51902c0.79281,0.31712 1.03065,0.83245 0.71353,1.54598c-0.23784,0.47569 -0.63425,0.71353 -1.18921,0.71353h-0.35676zM66.6649,228.22148c-0.31712,0 -0.57479,-0.13874 -0.77299,-0.41623c-0.1982,-0.27748 -0.25767,-0.57479 -0.17838,-0.89191c0.15856,-0.79281 0.63425,-1.10993 1.42706,-0.95137l12.84352,2.25951c0.79281,0.15856 1.10993,0.59461 0.95137,1.30813c-0.15856,0.71353 -0.55497,1.07029 -1.18921,1.07029h-0.23784zM66.18921,236.18921c-0.79281,0 -1.18921,-0.3964 -1.18921,-1.18921c0,-0.79281 0.3964,-1.18921 1.18921,-1.18921h13.08136c0.79281,0 1.18921,0.3964 1.18921,1.18921c0,0.79281 -0.3964,1.18921 -1.18921,1.18921zM79.62734,239.40009c0.71353,-0.15856 1.14957,0.15856 1.30813,0.95137c0.15856,0.71353 -0.15856,1.14957 -0.95137,1.30813l-12.84352,2.25951c-0.07928,0.07928 -0.15856,0.11892 -0.23784,0.11892c-0.63425,0 -1.03065,-0.35676 -1.18921,-1.07029c-0.15856,-0.71353 0.15856,-1.14957 0.95137,-1.30813zM80.81655,244.87048c0.79281,-0.31712 1.30813,-0.07928 1.54598,0.71353c0.23784,0.63425 0,1.10993 -0.71353,1.42706l-12.36783,4.51902c-0.07928,0 -0.13874,0.01982 -0.17838,0.05946c-0.03964,0.03964 -0.0991,0.05946 -0.17838,0.05946c-0.55497,0 -0.95137,-0.27748 -1.18921,-0.83245c-0.31712,-0.71353 -0.07928,-1.22885 0.71353,-1.54598zM83.07606,249.9841c0.55497,-0.3964 1.07029,-0.27748 1.54598,0.35676c0.3964,0.63425 0.27748,1.18921 -0.35676,1.6649l-11.41646,6.54068c-0.31712,0.15856 -0.51533,0.23784 -0.59461,0.23784c-0.47569,0 -0.83245,-0.1982 -1.07029,-0.59461c-0.3964,-0.71353 -0.23784,-1.26849 0.47569,-1.6649zM135.04473,215.14012c-0.47569,-0.63425 -0.43604,-1.22885 0.11892,-1.78382l9.9894,-8.3245c0.23784,-0.23784 0.53515,-0.33695 0.89191,-0.29731c0.35676,0.03964 0.61443,0.17838 0.77299,0.41623c0.55497,0.63425 0.51533,1.18921 -0.11892,1.6649l-9.9894,8.44342c-0.31712,0.15856 -0.55497,0.23784 -0.71353,0.23784c-0.3964,0 -0.71353,-0.11892 -0.95137,-0.35676zM86.04909,254.62204c0.63425,-0.47569 1.18921,-0.3964 1.6649,0.23784c0.47569,0.55497 0.43604,1.10993 -0.11892,1.6649l-10.10832,8.3245c-0.15856,0.23784 -0.3964,0.35676 -0.71353,0.35676c-0.31712,0 -0.63425,-0.15856 -0.95137,-0.47569c-0.47569,-0.63425 -0.3964,-1.18921 0.23784,-1.6649zM131.23925,211.21571c-0.63425,-0.47569 -0.67389,-1.03065 -0.11892,-1.6649l8.3245,-9.87048c0.47569,-0.63425 1.03065,-0.71353 1.6649,-0.23784c0.55497,0.63425 0.59461,1.18921 0.11892,1.6649l-8.3245,9.9894c-0.23784,0.31712 -0.55497,0.47569 -0.95137,0.47569c-0.23784,0 -0.47569,-0.11892 -0.71353,-0.35676zM91.51948,258.54645c0.55497,0.55497 0.59461,1.14957 0.11892,1.78382l-8.3245,9.9894c-0.23784,0.23784 -0.55497,0.35676 -0.95137,0.35676c-0.31712,0 -0.55497,-0.07928 -0.71353,-0.23784c-0.63425,-0.47569 -0.71353,-1.03065 -0.23784,-1.6649l8.44342,-9.9894c0.47569,-0.63425 1.03065,-0.71353 1.6649,-0.23784zM126.83915,208.24267c-0.71353,-0.3964 -0.87209,-0.95137 -0.47569,-1.6649l6.54068,-11.29754c0.3964,-0.63425 0.95137,-0.79281 1.6649,-0.47569c0.63425,0.47569 0.75317,1.03065 0.35676,1.6649l-6.54068,11.29754c-0.15856,0.3964 -0.47569,0.59461 -0.95137,0.59461c-0.31712,0 -0.51533,-0.03964 -0.59461,-0.11892zM95.91957,261.63841c0.71353,0.3964 0.87209,0.95137 0.47569,1.6649l-6.54068,11.29754c-0.23784,0.3964 -0.59461,0.59461 -1.07029,0.59461c-0.23784,0 -0.43604,-0.03964 -0.59461,-0.11892c-0.63425,-0.3964 -0.75317,-0.95137 -0.35676,-1.6649l6.42176,-11.29754c0.3964,-0.63425 0.95137,-0.79281 1.6649,-0.47569zM121.96337,205.86425c-0.71353,-0.31712 -0.95137,-0.83245 -0.71353,-1.54598l4.51902,-12.24891c0.31712,-0.71353 0.79281,-0.95137 1.42706,-0.71353c0.71353,0.23784 0.95137,0.75317 0.71353,1.54598l-4.40009,12.24891c-0.31712,0.55497 -0.71353,0.83245 -1.18921,0.83245c-0.15856,0 -0.27748,-0.03964 -0.35676,-0.11892zM100.79535,264.01683c0.79281,0.31712 1.03065,0.83245 0.71353,1.54598l-4.51902,12.24891c-0.07928,0.55497 -0.43604,0.83245 -1.07029,0.83245c-0.15856,0 -0.31712,-0.03964 -0.47569,-0.11892c-0.63425,-0.15856 -0.87209,-0.63425 -0.71353,-1.42706l4.51902,-12.36783c0.31712,-0.79281 0.83245,-1.03065 1.54598,-0.71353zM116.73083,204.43719c-0.79281,-0.15856 -1.10993,-0.59461 -0.95137,-1.30813l2.25951,-12.96244c0.15856,-0.79281 0.63425,-1.10993 1.42706,-0.95137c0.79281,0.15856 1.10993,0.63425 0.95137,1.42706l-2.25951,12.84352c-0.15856,0.71353 -0.55497,1.07029 -1.18921,1.07029c-0.07928,0 -0.15856,-0.03964 -0.23784,-0.11892zM103.29271,280.66584c-0.79281,-0.15856 -1.10993,-0.63425 -0.95137,-1.42706l2.25951,-12.84352c0.15856,-0.79281 0.63425,-1.10993 1.42706,-0.95137c0.31712,0 0.57479,0.13874 0.77299,0.41623c0.1982,0.27748 0.25767,0.57479 0.17838,0.89191l-2.25951,12.84352c-0.15856,0.71353 -0.55497,1.07029 -1.18921,1.07029z"
      >
      </path>
    </g>

    <path d="M182.08411,281.37936v-92.75873h2.27899v92.75873z">
    </path>
  </g>
 </svg>
